<?xml version="1.0" standalone="no"?>
<!DOCTYPE svg PUBLIC "-//W3C//DTD SVG 20010904//EN"
 "http://www.w3.org/TR/2001/REC-SVG-20010904/DTD/svg10.dtd">
<svg version="1.0" xmlns="http://www.w3.org/2000/svg"
 width="100.000000pt" height="85.770235pt" viewBox="0 0 100.000000 85.770235"
 preserveAspectRatio="xMidYMid meet">
<metadata>
Created by potrace 1.16, written by Peter Selinger 2001-2019
</metadata>
<g transform="translate(0.000000,85.770235) scale(0.013055,-0.013055)"
fill="#000000" stroke="none">
<path d="M2090 6350 c-8 -5 -30 -10 -49 -10 -19 0 -48 -4 -65 -9 -17 -5 -65
-19 -106 -31 -274 -79 -375 -129 -655 -330 -41 -29 -295 -287 -351 -357 -96
-118 -218 -341 -274 -498 -69 -196 -89 -295 -97 -473 l-4 -113 -37 -23 c-41
-26 -97 -83 -131 -133 -19 -28 -29 -56 -63 -173 -16 -57 0 -234 30 -325 22
-69 56 -118 139 -201 76 -76 217 -184 240 -184 31 -1 38 -22 44 -142 4 -68 11
-142 16 -166 13 -53 53 -111 108 -156 38 -32 65 -46 167 -89 22 -10 39 -25 42
-39 4 -13 11 -41 17 -63 6 -22 15 -54 20 -71 5 -17 9 -41 9 -54 0 -13 4 -37 9
-54 5 -17 15 -51 22 -76 7 -25 25 -71 41 -102 15 -32 28 -64 28 -71 0 -39 113
-177 185 -226 38 -26 57 -33 165 -61 64 -17 74 -24 83 -56 13 -45 27 -84 49
-139 11 -27 25 -63 32 -80 62 -158 231 -314 397 -364 19 -6 91 -11 160 -11 78
-1 132 -5 145 -13 21 -12 50 -37 244 -212 49 -44 116 -102 150 -130 34 -27 88
-72 121 -100 32 -27 81 -68 109 -90 27 -22 73 -58 100 -80 146 -117 170 -136
276 -215 26 -19 63 -49 83 -65 20 -17 47 -39 61 -48 14 -9 45 -33 70 -52 56
-43 166 -120 232 -162 28 -17 54 -35 60 -41 9 -9 90 41 198 123 25 19 70 51
100 72 30 20 74 53 97 72 23 20 60 50 83 66 22 17 63 48 90 70 99 81 132 105
144 105 7 0 29 18 50 40 20 22 43 40 50 40 7 0 29 18 50 40 20 22 42 40 48 40
6 0 28 15 49 32 22 18 67 56 102 85 68 57 181 157 323 286 49 45 115 101 145
124 63 49 705 696 827 834 45 52 106 122 135 156 29 35 68 82 87 104 19 23 43
54 52 68 10 14 51 69 92 121 69 89 237 331 284 410 171 290 295 549 353 735
17 55 37 120 45 145 8 25 14 57 14 71 0 15 12 47 26 73 58 104 58 498 -1 657
-9 24 -21 67 -27 94 -40 200 -190 511 -332 688 -58 73 -281 299 -335 341 -90
69 -253 175 -316 205 -95 46 -197 89 -235 100 -19 5 -60 17 -90 27 -66 20
-116 32 -190 46 -75 14 -509 22 -535 9 -11 -5 -53 -12 -93 -15 -40 -3 -87 -9
-105 -15 -199 -60 -222 -68 -362 -137 -273 -134 -502 -329 -715 -608 -34 -45
-36 -46 -90 -46 -55 1 -55 1 -84 48 -50 80 -243 289 -329 357 -94 74 -127 98
-202 149 -141 95 -356 192 -507 227 -21 5 -57 14 -80 20 -24 5 -65 15 -93 21
-66 14 -525 21 -545 8z m405 -299 c165 -16 214 -26 342 -69 238 -80 493 -235
618 -375 125 -140 183 -224 262 -377 53 -103 54 -106 50 -175 -3 -38 -11 -95
-17 -125 -21 -92 -24 -331 -6 -385 60 -177 200 -311 351 -337 99 -17 166 -28
223 -36 85 -12 124 -36 257 -162 50 -47 110 -98 134 -115 24 -16 85 -67 135
-112 50 -46 131 -118 179 -160 48 -43 128 -116 177 -163 49 -47 128 -120 177
-163 48 -42 131 -115 183 -162 52 -47 133 -119 180 -160 47 -41 127 -112 177
-158 51 -45 115 -102 143 -126 49 -43 50 -44 50 -103 0 -71 -13 -91 -134 -215
l-81 -83 -59 0 -60 0 -75 70 c-70 65 -112 103 -351 315 -47 42 -167 151 -267
243 -101 92 -215 194 -253 227 -96 82 -239 210 -333 297 -118 110 -110 109
-189 30 -38 -36 -68 -72 -68 -78 0 -6 25 -33 55 -60 30 -27 96 -85 145 -129
49 -44 131 -116 180 -160 50 -44 126 -112 168 -151 42 -39 88 -78 101 -87 13
-8 58 -49 101 -91 43 -42 79 -76 82 -76 2 0 39 -33 81 -72 42 -40 116 -108
164 -151 48 -42 129 -114 179 -160 50 -45 103 -90 118 -100 23 -16 26 -24 26
-76 l0 -57 -115 -110 c-224 -214 -224 -214 -286 -214 l-54 0 -80 80 c-77 77
-159 152 -340 310 -47 41 -127 112 -178 157 -50 46 -130 117 -177 158 -47 41
-124 110 -172 153 -48 42 -130 115 -183 162 -53 47 -130 116 -170 154 -45 42
-80 66 -88 63 -8 -3 -27 -23 -43 -44 -15 -21 -43 -54 -61 -74 l-34 -36 56 -49
c31 -27 92 -80 136 -119 206 -182 266 -235 342 -302 224 -197 263 -233 330
-301 40 -40 78 -72 85 -72 6 0 12 -4 12 -10 0 -5 4 -10 8 -10 5 0 41 -30 80
-67 61 -58 154 -142 292 -265 27 -23 30 -33 30 -82 0 -54 -1 -56 -40 -81 -22
-14 -65 -47 -94 -73 -30 -26 -82 -69 -115 -97 -34 -27 -84 -69 -111 -92 -49
-41 -54 -43 -117 -43 -77 0 -44 -24 -351 262 -95 89 -183 168 -195 176 -12 9
-59 49 -104 91 -46 42 -123 112 -173 156 -49 44 -132 118 -184 165 -52 47
-138 123 -191 170 -53 47 -125 111 -160 144 l-64 58 -75 -78 -76 -79 37 -30
c20 -16 73 -64 119 -105 45 -41 126 -113 179 -160 53 -47 131 -117 173 -156
42 -39 87 -77 98 -85 12 -8 90 -79 174 -159 84 -80 163 -152 175 -160 13 -8
58 -48 101 -87 228 -210 265 -243 274 -243 6 0 10 -26 10 -57 l0 -58 -60 -45
c-34 -25 -80 -60 -103 -77 -23 -18 -58 -44 -77 -58 -19 -14 -50 -37 -69 -50
-47 -35 -124 -35 -172 0 -19 13 -63 45 -99 70 -36 25 -81 58 -101 73 -20 15
-67 50 -105 79 -80 60 -142 109 -223 178 -33 28 -81 66 -107 85 -106 79 -577
494 -597 526 -4 7 -10 54 -14 104 -6 84 -4 96 19 148 14 31 34 75 43 97 26 59
37 110 42 200 7 123 -21 200 -106 288 -89 92 -177 137 -273 137 -76 0 -78 4
-78 208 0 229 -8 254 -117 365 -43 43 -98 89 -123 103 -25 13 -52 28 -60 32
-8 5 -42 22 -75 38 l-60 29 -5 135 c-6 138 -21 205 -68 296 -42 81 -146 154
-221 154 -74 0 -71 -7 -71 181 0 159 -1 173 -24 217 -24 48 -74 98 -158 159
-79 58 -102 63 -272 63 -193 0 -189 -2 -183 119 3 47 9 109 15 136 35 182 174
468 304 627 53 64 171 180 217 213 23 17 56 41 73 55 35 28 92 62 190 114 66
35 87 44 223 93 105 38 208 61 327 71 42 4 80 11 85 15 8 9 79 5 258 -12z
m3220 -10 c159 -19 302 -55 418 -105 20 -9 54 -23 75 -32 45 -19 155 -83 242
-143 118 -80 295 -265 374 -391 15 -25 43 -70 62 -100 19 -30 37 -66 41 -80 3
-14 17 -47 31 -75 26 -52 38 -86 52 -145 5 -19 14 -53 20 -75 26 -90 51 -292
51 -415 0 -75 -15 -222 -30 -297 -6 -29 -15 -74 -20 -100 -7 -42 -42 -149 -96
-293 -20 -55 -187 -388 -224 -448 -50 -82 -248 -381 -272 -411 -13 -17 -37
-48 -54 -70 -29 -39 -32 -40 -92 -41 l-63 0 -89 83 c-50 45 -133 120 -186 167
-53 47 -134 119 -180 160 -46 41 -127 113 -180 160 -53 47 -136 122 -186 168
-49 45 -93 82 -97 82 -8 0 -167 160 -280 280 -40 43 -80 96 -92 124 -27 63
-39 198 -20 221 18 22 80 53 153 76 34 11 68 26 76 33 9 7 30 21 48 30 18 9
63 38 100 66 37 27 88 64 113 82 96 69 230 194 310 288 69 81 69 76 9 136 -29
30 -58 54 -64 54 -12 0 -164 -152 -181 -180 -10 -17 -174 -141 -244 -186 -56
-35 -241 -127 -297 -148 -24 -9 -62 -23 -85 -32 -44 -17 -86 -28 -170 -45 -27
-5 -72 -14 -100 -20 -72 -16 -354 -23 -398 -10 -176 50 -183 54 -211 118 -28
66 -27 237 2 313 12 30 34 89 49 130 87 233 145 345 262 501 40 54 191 210
228 235 19 13 60 42 90 64 30 22 61 40 68 40 7 0 15 6 18 13 2 7 60 39 127 71
67 33 130 63 139 67 10 5 25 9 33 9 8 0 23 4 33 9 41 21 215 50 354 59 58 4
110 11 115 15 8 9 80 5 218 -12z m-4599 -1723 c26 -12 26 -13 22 -99 -6 -136
-13 -142 -268 -235 -52 -19 -85 -24 -167 -24 -134 0 -138 4 -129 118 4 49 15
104 27 132 19 44 26 51 97 84 l77 35 157 1 c103 0 166 -4 184 -12z m393 -597
c27 -17 50 -196 31 -241 -17 -41 -93 -108 -169 -150 -35 -19 -99 -59 -143 -87
-73 -49 -83 -53 -139 -53 -117 0 -129 22 -129 238 0 112 4 163 13 173 17 20
80 61 152 98 59 30 62 30 215 30 85 1 161 -3 169 -8z m357 -642 c38 -17 72
-36 76 -43 4 -6 8 -79 8 -161 0 -172 -10 -213 -80 -320 -37 -57 -61 -79 -149
-137 -36 -24 -157 -25 -207 -1 -53 26 -79 84 -165 369 -5 17 -9 69 -9 116 0
99 3 104 84 145 105 54 135 61 257 62 110 1 120 -1 185 -30z m482 -724 c72 -9
82 -26 82 -140 0 -65 -6 -105 -20 -145 -11 -30 -20 -62 -20 -71 0 -9 -13 -45
-29 -81 -25 -54 -38 -70 -85 -101 -50 -33 -63 -37 -119 -37 -86 0 -120 24
-169 115 -51 97 -68 153 -68 228 0 83 14 115 75 169 81 73 97 79 205 74 52 -3
119 -8 148 -11z"/>
</g>
</svg>
