<?xml version="1.0" standalone="no"?>
<!DOCTYPE svg PUBLIC "-//W3C//DTD SVG 20010904//EN"
 "http://www.w3.org/TR/2001/REC-SVG-20010904/DTD/svg10.dtd">
<svg version="1.0" xmlns="http://www.w3.org/2000/svg"
 width="299.000000pt" height="297.000000pt" viewBox="0 0 299.000000 297.000000"
 preserveAspectRatio="xMidYMid meet">

<g transform="translate(0.000000,297.000000) scale(0.100000,-0.100000)"
fill="#ffed4f" stroke="none">
<path d="M1000 2587 c0 -7 5 -18 10 -23 16 -16 -5 -129 -30 -164 -17 -23 -27
-29 -45 -24 -35 9 -87 -24 -155 -98 -57 -63 -61 -70 -54 -103 6 -35 6 -35 -29
-35 -52 0 -85 16 -128 60 -35 36 -44 40 -86 40 -30 0 -60 -8 -81 -20 -18 -11
-44 -20 -57 -20 -33 0 -106 -56 -136 -102 -13 -21 -30 -40 -38 -43 -10 -4 -3
-14 25 -34 36 -26 239 -141 358 -201 46 -24 50 -29 81 -108 20 -53 45 -96 68
-120 36 -37 117 -189 117 -219 0 -9 -12 -41 -26 -71 -30 -64 -50 -123 -69
-212 -8 -36 -23 -101 -34 -145 -12 -44 -21 -92 -21 -107 0 -22 3 -25 22 -20
16 4 27 -2 44 -24 15 -18 52 -40 101 -59 66 -27 78 -36 85 -61 5 -17 24 -40
48 -57 22 -15 45 -40 51 -55 23 -55 34 -74 64 -110 18 -20 38 -54 44 -75 12
-36 14 -37 49 -31 65 10 70 14 126 78 39 44 68 67 96 76 45 15 106 75 116 114
9 37 63 58 143 56 97 -4 98 -3 111 35 13 40 13 40 68 21 58 -21 77 -5 69 55
-5 36 -2 48 15 66 17 18 23 42 29 110 4 49 8 91 8 96 2 15 19 6 24 -13 3 -12
22 -27 44 -36 45 -19 85 -72 70 -96 -15 -23 -2 -45 31 -53 25 -5 32 -13 42
-53 7 -26 25 -60 40 -77 15 -16 30 -43 34 -60 23 -105 28 -113 108 -176 l78
-60 12 26 c8 18 8 38 1 71 -10 42 -8 50 13 82 28 41 29 57 9 106 -18 44 -13
85 21 168 19 46 24 75 24 148 0 50 5 100 11 111 8 17 3 30 -34 82 -25 34 -55
72 -68 84 -13 11 -32 33 -42 46 -12 18 -28 27 -55 29 -34 3 -37 6 -40 36 -3
25 -11 38 -33 50 -16 10 -29 22 -29 28 0 6 -13 29 -30 52 -16 22 -32 53 -36
68 -4 14 -24 38 -45 53 -35 24 -58 62 -74 119 -8 29 -107 102 -138 102 -23 0
-57 27 -57 45 0 4 43 5 95 2 91 -6 95 -6 95 14 0 11 -5 30 -11 41 -15 27 -4
33 88 47 117 17 138 39 88 91 -23 24 -24 29 -12 59 11 31 10 34 -14 54 -36 30
-47 107 -19 125 22 14 26 42 8 60 -7 7 -39 12 -75 12 -56 0 -66 3 -98 31 -35
31 -39 32 -143 35 -96 2 -274 16 -389 30 -32 4 -43 10 -43 22 0 12 -3 14 -8 4
-11 -16 -266 1 -336 23 -60 18 -66 19 -66 2z"/>
</g>
</svg>
