<?xml version="1.0" standalone="no"?>
<!DOCTYPE svg PUBLIC "-//W3C//DTD SVG 20010904//EN"
 "http://www.w3.org/TR/2001/REC-SVG-20010904/DTD/svg10.dtd">
<svg version="1.0" xmlns="http://www.w3.org/2000/svg"
 width="752.000000pt" height="268.000000pt" viewBox="0 0 752.000000 268.000000"
 preserveAspectRatio="xMidYMid meet">

<g transform="translate(0.000000,268.000000) scale(0.100000,-0.100000)"
fill="#000000" stroke="none">
<path d="M5080 2648 c-132 -28 -209 -64 -290 -136 -73 -65 -138 -189 -154
-293 -10 -65 -22 -80 -36 -44 -46 122 -141 240 -223 279 -134 62 -283 61 -382
-4 -34 -22 -123 -126 -139 -163 -3 -8 -12 -3 -23 13 -68 94 -112 120 -202 120
-148 0 -284 -103 -361 -274 -17 -36 -34 -66 -38 -66 -4 0 -18 17 -32 38 -72
107 -230 230 -360 279 -200 75 -447 84 -660 24 -19 -5 -46 -13 -60 -17 -32 -9
-163 -78 -192 -101 -98 -79 -202 -205 -239 -290 -17 -39 -29 -43 -29 -8 0 42
-28 133 -57 186 -96 178 -314 289 -565 289 -139 0 -309 -46 -423 -114 -74 -44
-173 -133 -223 -201 -47 -65 -121 -212 -142 -285 -7 -25 -16 -56 -20 -70 -47
-147 -63 -452 -35 -670 35 -274 96 -423 225 -551 126 -124 306 -188 535 -188
196 -1 379 51 528 149 75 49 132 100 181 160 l29 35 21 -29 c57 -79 121 -149
175 -190 33 -25 63 -46 66 -46 4 0 19 -8 33 -18 173 -120 614 -135 843 -30
122 56 252 160 325 260 38 51 51 58 60 30 21 -66 72 -147 119 -190 82 -75 148
-102 271 -109 162 -10 292 75 345 223 19 54 30 59 43 19 39 -132 98 -195 212
-230 93 -28 232 -11 292 37 43 33 93 97 119 149 15 32 31 58 35 58 4 1 12 -25
18 -56 39 -202 150 -293 340 -280 41 2 98 12 126 22 108 36 196 130 229 243
18 59 18 93 -1 439 l-7 113 132 0 c73 0 152 5 177 11 43 11 71 6 47 -9 -33
-21 -72 -166 -73 -269 -1 -233 109 -418 310 -518 229 -116 626 -93 913 51 209
105 323 248 379 479 76 316 76 935 0 1215 -66 242 -204 358 -429 360 -113 0
-220 -59 -256 -143 -35 -77 -40 -125 -32 -270 5 -78 9 -207 9 -287 1 -124 -2
-150 -17 -173 -23 -36 -74 -37 -109 -2 -51 50 -56 138 -32 519 12 183 -46 273
-204 321 -102 31 -240 9 -311 -51 -16 -13 -34 -24 -40 -24 -6 0 -19 19 -30 43
-56 122 -177 197 -374 232 -91 16 -268 18 -337 3z m314 -59 c186 -33 288 -95
346 -210 21 -41 26 -98 10 -127 -18 -33 -48 -137 -55 -189 -7 -58 -21 -74 -80
-92 -44 -14 -171 -10 -242 6 -92 22 -113 -2 -113 -130 0 -131 -8 -127 225
-127 l193 0 6 -27 c3 -16 8 -50 11 -78 14 -118 41 -207 81 -267 33 -52 31 -63
-18 -83 -90 -36 -148 -45 -292 -45 -116 0 -146 -3 -156 -15 -13 -15 -13 -28 6
-398 8 -144 -5 -205 -57 -277 -81 -111 -248 -161 -378 -111 -74 28 -119 81
-144 171 -5 19 -14 251 -18 515 -5 264 -13 518 -19 565 -18 143 -23 446 -10
514 25 128 58 195 135 271 74 74 132 104 260 134 56 13 237 13 309 0z m-1121
-163 c75 -20 107 -38 159 -90 45 -45 112 -166 130 -234 33 -128 44 -185 54
-273 l7 -57 -36 -17 c-99 -47 -147 -132 -147 -262 0 -169 64 -290 170 -324 19
-6 39 -15 43 -19 9 -8 -6 -196 -24 -295 -25 -138 -89 -271 -153 -320 -103 -77
-259 -74 -353 9 -97 85 -120 194 -87 402 31 195 34 231 40 382 10 254 -22 352
-114 352 -88 0 -126 -164 -87 -375 9 -44 19 -102 25 -130 33 -181 40 -229 39
-300 0 -134 -35 -244 -97 -308 -34 -36 -50 -45 -125 -76 -68 -27 -228 0 -302
52 -111 77 -188 255 -148 339 66 139 113 376 113 576 0 150 -28 326 -70 437
-34 90 -35 109 -9 173 37 92 70 144 124 198 102 102 258 125 326 48 23 -26 69
-112 69 -128 0 -8 7 -19 15 -26 12 -10 18 -10 30 0 8 7 15 19 15 26 0 7 11 37
24 66 72 156 203 217 369 174z m-3088 -21 c99 -22 128 -33 190 -71 108 -64
169 -137 204 -244 49 -147 9 -401 -75 -486 -59 -58 -199 -82 -296 -48 -76 26
-108 79 -108 181 0 92 -39 136 -106 119 -82 -21 -154 -205 -154 -394 0 -159
45 -294 110 -327 74 -38 145 -7 277 124 153 152 227 201 299 201 l34 0 0 -82
c1 -166 39 -397 86 -520 l18 -47 -29 -41 c-76 -109 -223 -212 -380 -265 -164
-56 -405 -59 -573 -6 -81 25 -150 68 -220 137 -59 59 -80 89 -116 166 -24 51
-47 107 -50 123 -4 17 -11 48 -16 70 -22 92 -40 267 -40 386 0 542 207 904
575 1007 123 34 269 41 370 17z m5723 4 c110 -25 184 -86 237 -195 44 -89 60
-163 80 -354 25 -242 17 -629 -16 -820 -51 -294 -149 -442 -369 -557 -232
-121 -557 -156 -788 -84 -169 52 -297 188 -337 357 -35 147 -4 339 64 391 26
20 96 15 153 -11 42 -18 164 -100 188 -126 17 -18 92 -62 129 -75 79 -28 213
-14 261 28 24 20 36 65 23 86 -20 33 -75 50 -163 51 -155 0 -274 37 -377 115
-87 65 -92 74 -64 113 65 92 68 219 8 317 -25 40 -92 90 -147 108 l-45 15 -3
92 c-3 89 -2 92 29 131 49 62 69 127 69 221 l0 82 42 38 c76 68 187 87 292 47
115 -42 153 -116 142 -272 -23 -326 -19 -418 21 -510 45 -105 213 -101 245 5
15 50 16 229 4 455 -8 133 -7 159 8 207 40 126 159 181 314 145z m-4233 -27
c210 -42 381 -153 488 -317 42 -65 43 -74 18 -205 -51 -271 -53 -642 -6 -970
6 -37 3 -53 -16 -85 -72 -126 -184 -232 -316 -300 -108 -55 -190 -74 -357 -82
-225 -10 -419 42 -561 151 -117 90 -211 235 -176 271 5 6 17 33 26 60 61 179
59 379 -5 494 -21 37 -96 101 -118 101 -32 0 -32 45 -1 210 47 249 163 439
344 559 108 72 146 87 285 116 73 15 313 13 395 -3z m2845 -475 c58 0 117 3
133 7 l27 8 0 -71 0 -71 -180 0 -180 0 0 71 0 71 48 -7 c26 -4 94 -7 152 -8z
m-2252 -74 c25 -88 32 -122 42 -202 18 -149 11 -309 -21 -471 -20 -102 -47
-190 -59 -190 -11 0 -30 275 -30 423 0 195 30 477 50 477 4 0 12 -17 18 -37z
m-2227 -108 c3 -39 12 -88 19 -109 27 -86 121 -136 254 -136 36 0 66 -3 66 -7
0 -5 -16 -19 -35 -32 -19 -13 -80 -68 -136 -123 -146 -144 -185 -163 -240
-115 -93 79 -87 455 9 568 39 48 56 35 63 -46z m3607 -146 c7 -68 11 -176 10
-239 -3 -109 -4 -115 -23 -112 -26 4 -64 31 -87 63 -42 56 -62 242 -34 310 27
64 79 114 111 105 6 -1 16 -59 23 -127z m1139 109 c41 -17 102 -78 119 -117 8
-18 14 -54 14 -80 0 -46 -28 -122 -49 -136 -39 -24 -101 124 -117 279 -4 36
-4 66 -1 66 3 0 19 -5 34 -12z m-1781 -118 c22 -74 14 -444 -12 -570 -5 -22
-7 -23 -15 -7 -6 9 -14 52 -20 94 -5 43 -15 114 -21 158 -7 44 -12 134 -13
200 0 100 3 126 18 149 25 38 47 30 63 -24z m-2443 -16 c11 -11 -5 -34 -24
-34 -22 0 -24 11 -7 28 13 13 22 15 31 6z m90 -126 c92 -49 135 -242 91 -413
-9 -33 -18 -70 -21 -83 -8 -34 -36 -23 -46 18 -4 19 -12 53 -18 75 -26 108
-51 415 -33 415 3 0 15 -5 27 -12z m4217 -198 c0 -5 -9 -10 -20 -10 -11 0 -20
5 -20 10 0 6 9 10 20 10 11 0 20 -4 20 -10z m455 -186 c120 -6 145 -10 145
-28 0 -22 -47 -36 -118 -36 -52 1 -77 6 -112 25 -25 14 -53 28 -62 31 -32 11
-20 27 15 19 17 -3 77 -9 132 -11z"/>
<path d="M2378 1658 c-38 -22 -47 -38 -68 -120 -14 -54 -9 -223 9 -279 20 -65
64 -99 126 -99 78 0 121 47 144 157 15 69 10 225 -9 286 -22 73 -123 101 -202
55z m139 -65 c26 -39 31 -208 8 -285 -18 -62 -43 -88 -86 -88 -53 0 -79 65
-79 200 0 47 5 102 10 122 21 74 111 106 147 51z"/>
</g>
</svg>
