<?xml version="1.0" standalone="no"?>
<!DOCTYPE svg PUBLIC "-//W3C//DTD SVG 20010904//EN"
 "http://www.w3.org/TR/2001/REC-SVG-20010904/DTD/svg10.dtd">
<svg version="1.0" xmlns="http://www.w3.org/2000/svg"
 width="208.000000pt" height="230.000000pt" viewBox="0 0 208.000000 230.000000"
 preserveAspectRatio="xMidYMid meet">

<g transform="translate(0.000000,230.000000) scale(0.100000,-0.100000)"
fill="#000000" stroke="none">
<path d="M472 1853 l-142 -97 0 -518 c0 -556 -1 -567 -50 -583 -36 -11 -21
-22 38 -28 73 -8 156 -37 249 -87 l74 -40 42 29 c56 38 172 96 225 111 l42 13
0 341 c0 311 -2 345 -19 382 -20 44 -60 74 -131 99 l-43 15 -132 -85 c-72 -47
-135 -85 -138 -85 -4 0 -7 108 -7 240 l0 240 42 -30 c117 -85 301 -76 381 20
29 34 43 86 32 121 -7 22 -8 21 -19 -11 -14 -45 -66 -73 -116 -64 -52 10 -124
49 -153 84 -14 16 -27 30 -29 30 -2 0 -68 -44 -146 -97z m242 -474 c21 -6 49
-21 62 -34 l24 -24 0 -354 c0 -313 -2 -356 -16 -361 -8 -3 -80 21 -160 55
l-144 61 0 286 0 287 78 47 c83 51 96 54 156 37z"/>
<path d="M1330 1908 c-65 -47 -149 -91 -207 -108 l-43 -13 0 -336 c0 -306 2
-340 19 -377 20 -44 60 -74 131 -99 l43 -15 133 85 c73 47 135 85 138 85 4 0
6 -108 6 -240 l0 -240 -37 24 c-81 53 -203 72 -294 45 -84 -26 -142 -107 -124
-176 l7 -28 11 35 c31 94 208 89 320 -10 l36 -31 115 92 116 93 0 512 c0 355
3 521 11 537 6 14 22 31 35 38 35 18 30 39 -9 39 -58 0 -149 29 -247 78 -52
26 -97 48 -100 49 -3 0 -30 -17 -60 -39z m77 -124 l143 -67 0 -282 0 -282 -75
-47 c-42 -25 -88 -46 -103 -46 -48 0 -101 20 -122 47 -19 25 -20 38 -20 379 0
347 1 358 29 363 3 1 69 -29 148 -65z"/>
</g>
</svg>
