<?xml version="1.0" standalone="no"?>
<!DOCTYPE svg PUBLIC "-//W3C//DTD SVG 20010904//EN"
 "http://www.w3.org/TR/2001/REC-SVG-20010904/DTD/svg10.dtd">
<svg version="1.0" xmlns="http://www.w3.org/2000/svg"
 width="781.000000pt" height="85.000000pt" viewBox="0 0 781.000000 85.000000"
 preserveAspectRatio="xMidYMid meet">

<g transform="translate(0.000000,85.000000) scale(0.100000,-0.100000)"
fill="#000000" stroke="none">
<path d="M70 415 l0 -335 280 0 280 0 0 335 0 335 -280 0 -280 0 0 -335z m200
138 l0 -78 78 78 c70 70 81 77 117 77 l40 0 -98 -98 -97 -97 100 -100 c100
-100 100 -100 80 -120 -20 -20 -20 -20 -120 80 l-100 100 0 -98 0 -97 -40 0
-40 0 0 215 0 215 40 0 40 0 0 -77z"/>
<path d="M660 415 l0 -335 275 0 275 0 0 335 0 335 -275 0 -275 0 0 -335z
m430 175 l0 -40 -115 0 -115 0 0 -40 0 -40 55 0 55 0 0 -35 0 -35 -55 0 -55 0
0 -60 0 -60 115 0 115 0 0 -40 0 -40 -155 0 -155 0 0 215 0 215 155 0 155 0 0
-40z"/>
<path d="M1250 415 l0 -335 275 0 275 0 0 335 0 335 -275 0 -275 0 0 -335z
m348 203 c7 -7 12 -40 12 -80 0 -64 1 -68 23 -68 42 0 47 -17 47 -147 l0 -123
-155 0 -155 0 0 203 c0 145 3 206 12 215 16 16 200 16 216 0z"/>
<path d="M1450 510 l0 -40 40 0 40 0 0 40 0 40 -40 0 -40 0 0 -40z"/>
<path d="M1450 340 l0 -60 80 0 80 0 0 60 0 60 -80 0 -80 0 0 -60z"/>
<path d="M1840 415 l0 -335 275 0 275 0 0 335 0 335 -275 0 -275 0 0 -335z
m392 178 c33 -32 38 -43 38 -84 0 -42 -4 -50 -40 -83 -31 -28 -49 -36 -77 -36
l-38 0 78 -78 c88 -88 96 -112 40 -112 -33 0 -46 9 -115 77 l-78 78 0 -78 0
-77 -40 0 -40 0 0 215 0 215 117 0 117 0 38 -37z"/>
<path d="M2040 510 l0 -40 58 0 c46 0 63 4 77 20 17 19 17 21 0 40 -14 16 -31
20 -77 20 l-58 0 0 -40z"/>
<path d="M2430 415 l0 -335 275 0 275 0 0 335 0 335 -275 0 -275 0 0 -335z
m418 203 c9 -9 12 -70 12 -215 l0 -203 -35 0 -35 0 0 55 0 55 -80 0 -80 0 0
-55 0 -55 -40 0 -40 0 0 203 c0 145 3 206 12 215 17 17 269 17 286 0z"/>
<path d="M2637 544 c-4 -4 -7 -40 -7 -81 l0 -73 80 0 81 0 -3 78 -3 77 -70 3
c-39 1 -74 0 -78 -4z"/>
<path d="M3030 415 l0 -335 275 0 275 0 0 335 0 335 -275 0 -275 0 0 -335z
m395 178 l34 -38 1 -145 0 -144 -32 -33 -32 -33 -123 0 -123 0 0 215 0 215
120 0 120 0 35 -37z"/>
<path d="M3230 410 l0 -140 63 0 c91 0 97 9 97 142 0 129 -6 138 -98 138 l-62
0 0 -140z"/>
<path d="M3620 415 l0 -335 275 0 275 0 0 335 0 335 -275 0 -275 0 0 -335z
m418 203 c9 -9 12 -70 12 -215 l0 -203 -35 0 -35 0 0 55 0 55 -80 0 -80 0 0
-55 0 -55 -40 0 -40 0 0 203 c0 145 3 206 12 215 17 17 269 17 286 0z"/>
<path d="M3827 544 c-4 -4 -7 -40 -7 -81 l0 -73 80 0 81 0 -3 78 -3 77 -70 3
c-39 1 -74 0 -78 -4z"/>
<path d="M4210 415 l0 -335 280 0 280 0 0 335 0 335 -280 0 -280 0 0 -335z
m310 -150 c26 -32 -13 -81 -47 -59 -23 14 -28 41 -13 59 16 19 44 19 60 0z"/>
<path d="M4800 415 l0 -335 275 0 275 0 0 335 0 335 -275 0 -275 0 0 -335z
m430 175 l0 -40 -115 0 -115 0 0 -140 0 -140 115 0 115 0 0 -35 0 -35 -155 0
-155 0 0 215 0 215 155 0 155 0 0 -40z"/>
<path d="M5390 415 l0 -335 275 0 275 0 0 335 0 335 -275 0 -275 0 0 -335z
m200 40 l0 -175 115 0 115 0 0 -40 0 -40 -155 0 -155 0 0 215 0 215 40 0 40 0
0 -175z"/>
<path d="M5990 415 l0 -335 280 0 280 0 0 335 0 335 -280 0 -280 0 0 -335z
m360 175 c0 -33 -3 -40 -20 -40 -19 0 -20 -7 -20 -140 0 -133 1 -140 20 -140
16 0 20 -7 20 -35 l0 -35 -80 0 -80 0 0 35 c0 28 4 35 20 35 19 0 20 7 20 140
0 133 -1 140 -20 140 -17 0 -20 7 -20 40 l0 40 80 0 80 0 0 -40z"/>
<path d="M6580 415 l0 -335 275 0 275 0 0 335 0 335 -275 0 -275 0 0 -335z
m430 175 l0 -40 -115 0 -115 0 0 -140 0 -140 115 0 115 0 0 -35 0 -35 -155 0
-155 0 0 215 0 215 155 0 155 0 0 -40z"/>
<path d="M7170 415 l0 -335 280 0 280 0 0 335 0 335 -280 0 -280 0 0 -335z
m200 138 l0 -78 78 78 c70 70 81 77 117 77 l40 0 -98 -98 -97 -97 100 -100
c100 -100 100 -100 80 -120 -20 -20 -20 -20 -120 80 l-100 100 0 -98 0 -97
-40 0 -40 0 0 215 0 215 40 0 40 0 0 -77z"/>
</g>
</svg>
