<?xml version="1.0" standalone="no"?>
<!DOCTYPE svg PUBLIC "-//W3C//DTD SVG 20010904//EN"
 "http://www.w3.org/TR/2001/REC-SVG-20010904/DTD/svg10.dtd">
<svg version="1.0" xmlns="http://www.w3.org/2000/svg"
 width="334.000000pt" height="398.000000pt" viewBox="0 0 334.000000 398.000000"
 preserveAspectRatio="xMidYMid meet">

<g transform="translate(0.000000,398.000000) scale(0.100000,-0.100000)"
fill="#000000" stroke="none">
<path d="M800 3656 c-63 -16 -111 -48 -164 -107 -86 -95 -79 12 -87 -1369 -3
-674 -3 -1280 1 -1346 8 -141 26 -188 96 -258 71 -71 122 -91 234 -91 79 0
103 4 143 23 61 30 129 98 158 158 33 69 38 187 38 971 l1 692 -36 27 c-52 40
-110 126 -135 202 -102 305 145 618 463 588 88 -8 164 -37 236 -90 l58 -43
409 -5 c443 -6 487 -2 571 47 23 13 56 41 74 62 145 165 96 425 -98 520 l-57
28 -930 2 c-713 1 -941 -1 -975 -11z"/>
<path d="M2127 2836 c-50 -14 -137 -69 -177 -111 -16 -17 -26 -44 -32 -87 -5
-38 -22 -92 -44 -136 -68 -139 -187 -223 -346 -246 l-82 -12 -23 -44 c-33 -65
-46 -148 -34 -216 19 -103 -24 -37 767 -1163 200 -285 239 -316 404 -316 112
0 163 20 234 91 60 59 88 121 94 205 9 124 -9 161 -207 444 -47 66 -141 201
-211 300 -69 99 -168 240 -219 314 l-93 134 38 36 c281 262 305 286 332 340
23 48 27 68 27 141 -1 65 -6 96 -22 132 -29 65 -105 143 -168 173 -64 32 -168
41 -238 21z"/>
</g>
</svg>
