<?xml version="1.0" standalone="no"?>
<!DOCTYPE svg PUBLIC "-//W3C//DTD SVG 20010904//EN"
 "http://www.w3.org/TR/2001/REC-SVG-20010904/DTD/svg10.dtd">
<svg version="1.0" xmlns="http://www.w3.org/2000/svg"
 width="640.000000pt" height="112.000000pt" viewBox="0 0 640.000000 112.000000"
 preserveAspectRatio="xMidYMid meet">

<g transform="translate(0.000000,112.000000) scale(0.100000,-0.100000)"
fill="#000000" stroke="none">
<path d="M79 1061 l-29 -29 0 -262 0 -262 29 -29 29 -29 147 0 146 0 -3 -77
c-2 -61 -6 -78 -18 -78 -11 0 -16 15 -18 63 l-3 62 -154 0 -155 0 0 -171 0
-171 29 -29 29 -29 272 0 272 0 29 29 29 29 0 292 0 292 -29 29 -29 29 -147 0
-146 0 3 48 c2 34 7 47 18 47 9 0 16 -11 18 -27 l3 -28 155 0 154 0 0 136 0
136 -29 29 -29 29 -272 0 -272 0 -29 -29z"/>
<path d="M730 584 l0 -506 29 -29 29 -29 471 0 471 0 0 135 0 135 -345 0 -345
0 0 400 0 400 -155 0 -155 0 0 -506z"/>
<path d="M1099 1061 l-29 -29 0 -356 0 -356 155 0 155 0 0 45 c0 38 3 45 20
45 17 0 20 -7 20 -45 l0 -45 155 0 155 0 0 356 0 356 -29 29 -29 29 -272 0
-272 0 -29 -29z m319 -364 c3 -112 2 -117 -18 -117 -19 0 -20 6 -20 113 0 63
3 117 7 121 20 20 28 -9 31 -117z"/>
<path d="M1750 555 l0 -535 155 0 155 0 0 401 c0 376 1 400 18 397 16 -3 17
-31 22 -377 l5 -373 28 -24 c26 -23 35 -24 153 -24 l124 0 0 401 c0 316 3 400
13 397 9 -4 13 -92 17 -377 l5 -373 28 -24 c26 -23 35 -24 153 -24 l124 0 0
506 0 506 -29 29 -29 29 -471 0 -471 0 0 -535z"/>
<path d="M3009 1061 l-29 -29 0 -506 0 -506 155 0 155 0 0 195 c0 188 1 195
20 195 19 0 20 -7 20 -195 l0 -195 155 0 155 0 0 506 0 506 -29 29 -29 29
-272 0 -272 0 -29 -29z m319 -364 c3 -112 2 -117 -18 -117 -19 0 -20 6 -20
113 0 63 3 117 7 121 20 20 28 -9 31 -117z"/>
<path d="M3660 584 l0 -506 29 -29 c29 -29 30 -29 155 -29 l126 0 0 535 0 535
-155 0 -155 0 0 -506z"/>
<path d="M4000 555 l0 -535 500 0 500 0 0 135 0 135 -170 0 -170 0 0 85 c0
116 -21 155 -82 155 -30 0 -16 23 20 32 56 15 62 41 62 268 l0 202 -29 29 -29
29 -301 0 -301 0 0 -535z m348 152 c3 -102 2 -107 -18 -107 -19 0 -20 6 -20
111 0 100 2 110 18 107 15 -3 17 -18 20 -111z m0 -324 c-3 -74 -6 -88 -20 -91
-16 -3 -18 6 -18 87 0 85 1 91 20 91 20 0 21 -5 18 -87z"/>
<path d="M4690 970 l0 -120 155 0 155 0 0 120 0 120 -155 0 -155 0 0 -120z"/>
<path d="M5020 555 l0 -535 155 0 155 0 0 401 c0 376 1 400 18 397 16 -3 17
-31 22 -377 l5 -373 28 -24 28 -24 470 0 469 0 0 135 0 135 -345 0 -345 0 0
371 0 371 -29 29 -29 29 -301 0 -301 0 0 -535z"/>
<path d="M5739 1061 l-29 -29 0 -327 0 -327 30 -29 29 -30 277 3 276 3 24 28
24 28 0 325 0 326 -29 29 -29 29 -272 0 -272 0 -29 -29z m316 -357 c0 -117 -2
-139 -15 -139 -12 0 -15 22 -18 129 -3 137 0 160 21 153 9 -3 12 -40 12 -143z"/>
<path d="M4690 570 l0 -250 155 0 155 0 0 250 0 250 -155 0 -155 0 0 -250z"/>
</g>
</svg>
