
<svg version="1.0" xmlns="http://www.w3.org/2000/svg"
 width="454.000000pt" height="586.000000pt" viewBox="0 0 454.000000 586.000000"
 preserveAspectRatio="xMidYMid meet">

<g transform="translate(0.000000,586.000000) scale(0.100000,-0.100000)"
fill="#000000" stroke="none">
<path d="M2280 5350 c-74 -16 -168 -68 -225 -126 -61 -61 -133 -199 -192 -369
-19 -55 -52 -141 -73 -190 -21 -50 -54 -136 -74 -192 -19 -56 -43 -117 -52
-135 -10 -18 -43 -103 -75 -188 -31 -85 -66 -177 -77 -205 -23 -54 -98 -249
-168 -440 -81 -219 -75 -276 -68 615 4 551 2 812 -5 850 -58 294 -386 454
-658 320 -122 -60 -220 -190 -242 -320 -14 -81 -34 -4160 -21 -4230 55 -293
385 -454 657 -320 128 63 192 151 281 390 22 58 49 128 61 155 23 56 100 259
167 440 24 66 56 145 70 175 14 30 47 115 74 190 26 74 57 155 69 180 11 25
43 106 70 180 27 74 65 173 85 220 l35 85 3 -850 3 -850 22 -55 c55 -134 150
-224 292 -279 189 -73 373 -38 506 95 67 66 114 162 201 406 35 97 71 192 80
210 9 18 45 112 80 210 35 97 70 191 79 208 9 17 43 107 75 200 32 92 68 187
80 209 11 23 42 103 69 178 27 76 58 158 70 183 11 25 48 120 81 213 33 92 67
181 75 198 9 16 43 106 75 199 32 92 68 187 80 210 12 23 48 118 80 211 33 93
73 200 89 237 16 37 50 126 75 197 26 72 62 166 80 210 19 44 53 131 76 194
23 63 48 127 56 142 8 15 35 86 60 156 44 121 47 133 47 233 0 86 -4 116 -22
162 -49 125 -158 231 -283 275 -78 26 -234 24 -309 -6 -78 -30 -160 -91 -204
-151 -40 -54 -99 -189 -170 -387 -25 -67 -52 -139 -61 -160 -17 -39 -84 -206
-159 -398 -67 -170 -113 -285 -136 -340 -12 -27 -43 -108 -69 -180 -26 -71
-58 -155 -71 -185 l-24 -55 -5 865 -5 865 -23 57 c-50 124 -150 223 -271 269
-63 23 -193 33 -261 19z"/>
</g>
</svg>
