
<svg version="1.0" xmlns="http://www.w3.org/2000/svg"
 width="787.000000pt" height="249.000000pt" viewBox="0 0 787.000000 249.000000"
 preserveAspectRatio="xMidYMid meet">

<g transform="translate(0.000000,249.000000) scale(0.100000,-0.100000)"
fill="#000000" stroke="none">
<path d="M150 1687 c0 -641 1 -684 18 -703 10 -10 28 -35 42 -54 13 -19 27
-37 30 -40 3 -3 17 -21 30 -40 13 -19 27 -37 30 -40 3 -3 17 -21 30 -40 13
-19 27 -37 30 -40 3 -3 17 -21 30 -40 13 -19 27 -37 30 -40 3 -3 59 -76 123
-163 l118 -157 170 0 169 0 165 165 c91 91 170 165 175 165 5 0 84 -74 175
-165 l165 -165 169 0 170 0 118 158 c64 86 120 159 123 162 3 3 17 21 30 40
13 19 27 37 30 40 3 3 17 21 30 40 13 19 27 37 30 40 3 3 17 21 30 40 13 19
27 37 30 40 3 3 17 21 30 40 14 19 32 44 42 54 17 19 18 62 18 703 l0 683
-170 0 -170 0 0 -596 0 -596 -76 -102 c-41 -55 -81 -108 -87 -116 -7 -8 -23
-31 -37 -50 -13 -19 -29 -40 -35 -46 -5 -7 -30 -39 -54 -73 -40 -56 -64 -73
-73 -53 -1 4 -41 41 -88 82 -47 41 -87 77 -90 80 -3 3 -43 39 -90 80 -47 41
-92 82 -100 90 -49 49 -111 100 -122 100 -7 0 -36 -22 -63 -48 -28 -26 -89
-81 -135 -122 -47 -41 -92 -82 -100 -90 -8 -8 -53 -49 -100 -90 -47 -41 -86
-78 -88 -82 -9 -20 -33 -3 -73 53 -24 34 -49 66 -54 73 -6 6 -22 27 -35 46
-13 19 -27 37 -30 40 -3 3 -17 21 -30 40 -14 19 -30 42 -37 50 -6 8 -32 43
-57 76 l-46 62 0 596 0 596 -170 0 -170 0 0 -683z"/>
<path d="M2850 1350 l0 -1020 170 0 170 0 0 740 c0 407 4 740 8 740 5 0 22
-15 38 -33 16 -18 63 -71 104 -117 41 -47 82 -92 90 -100 8 -8 49 -53 90 -100
41 -47 77 -87 80 -90 3 -3 39 -43 80 -90 41 -47 77 -87 80 -90 3 -3 34 -38 69
-77 l64 -73 147 0 148 0 53 63 c30 34 61 69 69 77 8 8 49 53 90 100 41 47 77
87 80 90 3 3 39 43 80 90 41 47 82 92 90 100 8 8 49 53 90 100 41 46 88 99
104 117 16 18 33 33 38 33 4 0 8 -333 8 -740 l0 -740 170 0 170 0 0 1020 0
1020 -168 0 -169 0 -39 -43 c-21 -23 -73 -80 -114 -127 -41 -47 -77 -87 -80
-90 -3 -3 -20 -23 -39 -45 -19 -22 -64 -74 -101 -115 -37 -41 -82 -93 -101
-115 -19 -22 -41 -47 -49 -55 -8 -8 -30 -33 -49 -55 -19 -22 -64 -74 -101
-115 -37 -41 -82 -93 -101 -115 -68 -79 -78 -87 -92 -73 -6 7 -41 47 -77 88
-35 41 -67 77 -70 80 -3 3 -39 43 -80 90 -41 47 -77 87 -80 90 -3 3 -35 39
-70 80 -36 41 -72 82 -80 90 -8 8 -44 49 -80 90 -35 41 -67 77 -70 80 -3 3
-39 43 -80 90 -41 47 -93 104 -114 127 l-39 43 -169 0 -168 0 0 -1020z"/>
<path d="M6343 2308 c-45 -71 -262 -414 -333 -528 -182 -291 -392 -624 -436
-692 l-44 -68 0 -345 0 -345 170 0 170 0 0 270 0 270 680 0 680 0 0 -270 0
-270 170 0 170 0 0 345 0 345 -44 68 c-44 68 -254 401 -436 692 -71 114 -288
457 -333 528 l-39 62 -168 0 -168 0 -39 -62z m227 -277 c0 -5 18 -39 41 -76
22 -37 49 -82 59 -99 9 -17 41 -71 70 -121 51 -87 124 -212 244 -418 31 -53
59 -104 62 -112 5 -13 -54 -15 -495 -15 -333 0 -501 3 -501 10 0 6 18 40 40
76 22 36 40 68 40 70 0 3 11 21 24 42 21 33 129 215 176 297 10 17 41 71 70
120 29 50 72 123 94 162 26 46 47 73 59 73 9 0 17 -4 17 -9z"/>
</g>
</svg>
