
<svg version="1.0" xmlns="http://www.w3.org/2000/svg"
 width="409.000000pt" height="309.000000pt" viewBox="0 0 409.000000 309.000000"
 preserveAspectRatio="xMidYMid meet">

<g transform="translate(0.000000,309.000000) scale(0.100000,-0.100000)"
fill="#ff5d58" stroke="none">
<path d="M3720 2711 c-25 -35 -64 -74 -96 -95 -30 -20 -54 -40 -54 -44 0 -4
-14 -22 -31 -39 -34 -37 -71 -43 -118 -18 -28 14 -30 13 -64 -24 -20 -22 -71
-60 -114 -86 -43 -25 -89 -54 -103 -65 -24 -18 -24 -19 -6 -38 31 -35 17 -64
-45 -94 -62 -29 -85 -55 -123 -142 -23 -52 -25 -63 -15 -97 10 -32 9 -42 -5
-63 -20 -31 -59 -42 -91 -28 -23 10 -25 9 -31 -23 -8 -42 -19 -52 -64 -57 -28
-2 -38 -9 -51 -37 -9 -19 -23 -39 -31 -45 -8 -6 -17 -19 -21 -28 -3 -10 -14
-18 -23 -18 -12 0 -15 6 -10 23 9 39 -25 48 -114 30 -151 -30 -151 -30 -205
17 -26 23 -60 49 -74 58 -14 9 -32 25 -39 34 -7 10 -24 18 -37 18 -13 0 -41
14 -61 32 -34 30 -37 31 -63 17 -22 -12 -26 -22 -29 -67 -2 -41 -8 -55 -29
-72 -34 -27 -46 -25 -87 10 -20 18 -37 26 -41 21 -8 -15 -68 -1 -80 18 -5 9
-12 29 -15 46 -4 25 -10 31 -43 36 -50 8 -87 44 -87 84 0 40 -22 70 -44 62
-42 -16 -100 41 -98 97 1 46 -13 63 -66 76 -36 8 -61 23 -91 54 l-43 44 -45
-14 c-70 -21 -159 -18 -182 5 -11 11 -29 24 -40 30 -22 12 -102 14 -139 4 -23
-5 -24 -9 -17 -60 7 -61 -3 -83 -42 -83 -13 0 -35 -7 -49 -16 -19 -13 -30 -15
-49 -6 -26 12 -35 1 -35 -43 0 -26 -42 -65 -71 -65 -10 0 -35 16 -55 37 -30
30 -39 34 -53 25 -29 -21 -41 -24 -67 -18 -24 6 -26 11 -21 41 8 47 -11 62
-52 41 -16 -9 -33 -20 -36 -26 -3 -5 -32 -10 -63 -10 -78 0 -124 -24 -133 -69
-6 -30 -2 -40 31 -80 21 -25 40 -55 42 -66 5 -23 -18 -75 -32 -75 -16 0 -11
-58 6 -72 85 -67 142 -166 159 -273 7 -44 24 -103 38 -131 14 -28 29 -68 33
-90 3 -21 12 -46 20 -54 7 -9 17 -26 22 -40 8 -22 10 -20 16 23 13 86 107 123
142 54 21 -41 20 -40 36 -31 7 5 28 14 46 20 27 10 34 10 39 -2 4 -11 9 -12
19 -3 20 16 44 -6 44 -40 0 -41 18 -92 40 -116 14 -15 23 -41 27 -81 3 -35 18
-83 34 -116 26 -51 34 -59 71 -69 51 -15 66 -25 88 -62 l17 -28 5 59 c3 32 11
67 18 78 20 31 81 74 107 74 33 0 89 -39 106 -75 8 -16 31 -50 51 -75 19 -25
62 -78 94 -119 l58 -73 139 2 c221 4 238 3 270 -14 17 -9 35 -16 41 -16 7 0
41 -14 78 -31 65 -30 100 -36 386 -63 19 -2 82 -9 140 -16 57 -7 128 -10 157
-7 30 3 53 2 53 -4 0 -5 25 -8 55 -7 47 2 58 -1 83 -25 23 -22 37 -27 81 -27
61 0 78 -8 147 -66 l52 -44 78 21 c134 35 148 39 177 39 15 0 49 10 75 21 26
12 64 22 85 22 46 0 73 31 61 69 -4 13 -6 38 -6 56 1 21 -6 41 -18 55 -11 11
-20 27 -20 34 0 8 -9 32 -21 55 -17 34 -19 45 -9 66 8 18 9 69 4 171 -6 140
-8 149 -41 211 -18 36 -47 83 -63 105 -30 40 -30 41 -21 126 5 58 17 106 35
145 21 46 26 67 20 94 -9 41 -8 38 -22 73 -10 23 -9 34 4 59 13 25 15 48 9
112 -9 108 0 127 80 178 l66 42 -6 76 c-6 71 -5 77 23 121 17 26 42 55 57 65
71 49 75 57 75 142 l0 80 55 55 c30 30 55 63 55 74 0 26 -58 79 -95 86 -16 3
-37 8 -46 12 -12 5 -28 -9 -59 -54z"/>
</g>
<text x="170" y="200" fill="#000">ZONA NORTE</text>
</svg>
