<?xml version="1.0" standalone="no"?>
<!DOCTYPE svg PUBLIC "-//W3C//DTD SVG 20010904//EN"
 "http://www.w3.org/TR/2001/REC-SVG-20010904/DTD/svg10.dtd">
<svg version="1.0" xmlns="http://www.w3.org/2000/svg"
 width="409.000000pt" height="563.000000pt" viewBox="0 0 409.000000 563.000000"
 preserveAspectRatio="xMidYMid meet">

<g transform="translate(0.000000,563.000000) scale(0.100000,-0.100000)"
fill="#a1fc85" stroke="none">
<path d="M2840 5243 c0 -25 -8 -45 -26 -64 -14 -15 -40 -42 -58 -61 -18 -18
-38 -55 -45 -81 -12 -40 -19 -48 -45 -56 -26 -7 -35 -4 -57 15 -29 28 -55 30
-80 8 -28 -25 -97 -24 -118 2 -16 21 -18 21 -79 4 -34 -10 -85 -29 -113 -44
-28 -14 -59 -26 -70 -26 -13 0 -21 -12 -30 -42 -6 -24 -13 -49 -15 -55 -6 -22
-22 -14 -32 15 -7 19 -28 39 -64 59 -29 17 -60 38 -67 47 -34 40 -49 9 -91
-179 -12 -55 -25 -107 -30 -115 -4 -8 -30 -28 -58 -45 -28 -16 -69 -51 -91
-76 -34 -39 -46 -46 -73 -45 -26 1 -33 7 -39 30 -13 47 1 85 42 118 60 48 62
85 8 113 -38 20 -63 19 -84 -5 -10 -11 -24 -20 -30 -20 -7 0 -18 -7 -25 -15
-11 -13 -15 -13 -41 0 -37 20 -79 19 -94 -2 -11 -15 -15 -11 -34 31 l-21 48
-41 -32 c-22 -18 -48 -44 -57 -59 -36 -58 -77 -104 -113 -127 -22 -13 -50 -42
-64 -65 -18 -27 -40 -46 -70 -59 -33 -14 -46 -26 -51 -47 -4 -15 -15 -40 -25
-55 -11 -14 -19 -38 -19 -53 0 -72 -34 -234 -61 -290 -44 -93 -46 -115 -13
-174 25 -44 27 -54 16 -71 -16 -26 -10 -36 33 -50 29 -9 35 -16 34 -38 0 -15
-4 -36 -8 -47 -4 -10 -3 -37 2 -58 13 -51 -5 -129 -38 -169 -14 -16 -25 -35
-25 -42 0 -31 41 -103 65 -114 16 -7 25 -20 25 -34 0 -24 43 -58 90 -73 14 -4
51 -21 83 -38 51 -26 57 -33 57 -61 0 -43 -34 -95 -75 -111 -18 -8 -41 -25
-49 -37 -9 -12 -35 -31 -58 -43 -41 -19 -43 -23 -46 -67 -2 -26 2 -64 7 -85
10 -35 9 -40 -18 -63 -15 -14 -41 -43 -57 -65 -16 -22 -32 -42 -35 -45 -3 -3
-12 -22 -18 -43 -17 -50 -3 -67 53 -67 67 0 141 -27 219 -80 72 -49 126 -95
128 -108 1 -4 3 -46 5 -94 5 -125 -1 -129 -145 -102 l-34 7 7 -57 c3 -32 13
-68 21 -80 12 -18 17 -70 21 -238 5 -190 3 -217 -11 -232 -13 -13 -38 -16
-129 -16 l-112 0 -20 37 c-11 21 -28 39 -38 41 -15 3 -17 -2 -11 -55 6 -55 5
-61 -26 -103 -47 -63 -51 -152 -15 -313 14 -64 26 -118 26 -119 0 -2 18 -3 40
-3 30 0 44 -6 56 -24 15 -21 21 -22 70 -16 l53 6 22 -45 c17 -38 28 -48 60
-56 39 -11 59 -33 59 -68 0 -24 35 -56 82 -76 34 -13 38 -19 38 -52 0 -31 7
-44 42 -76 l42 -39 -34 -64 c-19 -36 -59 -96 -89 -133 -71 -89 -91 -122 -91
-152 0 -34 17 -50 52 -50 44 0 76 21 163 109 95 96 127 110 185 80 52 -27 103
-34 141 -19 27 12 32 11 41 -3 14 -26 62 -21 98 10 24 20 44 27 79 28 51 1 91
18 91 39 0 18 36 49 52 43 7 -2 29 4 49 14 38 19 49 17 49 -11 0 -10 9 -29 21
-44 23 -30 44 -32 132 -14 55 12 61 11 71 -6 6 -10 26 -32 44 -49 17 -17 32
-36 32 -43 0 -8 11 -21 24 -29 22 -15 28 -14 90 11 47 20 66 33 66 46 0 12 7
18 24 18 53 0 75 29 41 54 -9 7 -17 32 -19 62 -2 29 -6 57 -10 62 -4 7 10 20
32 31 22 11 42 27 45 34 3 8 22 18 42 21 20 4 44 16 53 26 11 13 23 18 39 14
16 -4 31 2 52 22 27 25 29 30 16 44 -13 15 -13 19 5 35 26 23 25 43 -1 71 -20
21 -20 25 -7 46 8 13 18 47 21 75 5 44 3 54 -12 62 -12 7 -22 6 -29 -1 -15
-15 -32 -1 -49 40 -15 36 -15 36 16 61 24 20 35 42 47 89 16 63 16 65 -6 94
-17 23 -20 38 -16 63 5 25 3 36 -9 42 -17 10 -49 147 -48 208 0 22 3 97 6 167
l6 127 -37 31 c-20 17 -60 42 -88 55 -51 24 -51 25 -59 82 -12 87 -14 183 -4
224 6 22 26 53 50 76 50 49 57 78 66 254 8 172 -2 217 -61 279 -70 73 -165
215 -187 277 -11 32 -24 92 -30 133 -6 41 -17 89 -24 106 -17 41 -2 59 61 75
36 9 67 28 119 74 39 34 84 67 100 73 17 7 45 26 64 42 28 25 31 32 21 45 -7
8 -19 15 -27 15 -27 0 -80 50 -108 102 -16 29 -37 62 -47 72 -18 20 -16 50 3
71 5 5 9 19 9 31 0 12 7 28 16 35 12 10 14 23 10 50 -5 29 0 49 19 85 14 26
25 62 25 80 0 27 4 34 20 34 10 0 31 5 45 12 21 9 31 9 46 0 29 -18 229 78
299 144 51 47 52 50 46 94 -4 31 -1 51 9 65 12 14 14 34 9 82 -5 46 -2 75 9
105 8 24 18 75 20 115 3 39 8 77 12 83 14 23 -103 163 -143 170 -18 4 -28 12
-30 27 -2 13 -13 29 -24 37 -19 14 -32 33 -69 107 -15 31 -36 49 -55 49 -2 0
-4 -16 -4 -37z"/>
</g>
</svg>
