<svg
            class="Regions-IMG"
            id="SVG-oeste"
            version="1.0"
            xmlns="http://www.w3.org/2000/svg"
            width="402.000000pt"
            height="392.000000pt"
            viewBox="0 0 200.000000 392.000000"
            preserveAspectRatio="xMidYMid meet"
          >
            <g
              transform="translate(0.000000,392.000000) scale(0.100000,-0.100000)"
              stroke="none"
            >
              <path
                d="M1620 3722 c-19 -9 -49 -36 -66 -58 -26 -35 -32 -53 -37 -115 -3 -41
                -11 -87 -18 -104 l-12 -30 -9 39 c-4 22 -13 45 -19 53 -13 15 -53 18 -44 3 7
                -11 -45 -82 -86 -117 -15 -13 -32 -36 -39 -53 -11 -26 -10 -37 10 -82 31 -73
                64 -119 106 -148 20 -14 57 -43 83 -66 25 -22 54 -44 64 -47 22 -8 22 -18 -5
                -52 -19 -24 -26 -26 -61 -21 -79 13 -116 -43 -122 -182 -2 -48 -6 -107 -10
                -133 -5 -30 -2 -66 9 -108 9 -34 16 -72 16 -83 0 -12 -21 -54 -47 -95 -27 -41
                -57 -88 -68 -106 -15 -23 -31 -33 -57 -38 -48 -7 -63 -21 -84 -74 -14 -38 -23
                -46 -61 -59 -25 -8 -53 -26 -63 -39 -11 -14 -34 -30 -52 -37 -61 -24 -147 -82
                -174 -117 -44 -58 -78 -73 -170 -73 -53 0 -85 -4 -91 -12 -22 -29 -22 -48 2
                -77 32 -37 31 -51 -6 -167 -34 -107 -34 -165 2 -223 17 -28 23 -31 71 -31 59
                0 66 4 91 43 17 27 20 27 81 21 50 -5 87 -1 177 21 63 14 134 37 159 50 25 12
                71 28 102 35 63 12 101 37 123 81 20 37 28 37 48 -5 9 -19 33 -47 53 -63 20
                -15 53 -42 73 -60 l36 -31 -24 -56 -23 -55 25 -48 c13 -26 31 -61 38 -78 19
                -39 42 -42 74 -11 33 33 77 33 130 1 51 -32 78 -32 99 0 9 14 25 25 36 25 10
                0 31 15 45 33 23 28 31 32 66 29 25 -3 50 -14 69 -32 48 -45 47 -47 -80 -159
                l-45 -40 -2 -100 c-1 -115 4 -125 72 -126 24 0 47 -3 51 -8 4 -4 11 -7 15 -7
                17 0 115 94 140 135 20 31 43 49 95 74 94 46 144 94 144 141 0 19 10 69 21
                110 11 41 28 111 38 155 23 103 52 195 63 195 4 0 8 9 8 21 0 23 16 56 37 77
                7 7 13 24 13 37 0 26 126 159 267 284 74 64 113 117 113 151 0 18 -53 70 -71
                70 -5 0 -9 7 -9 15 0 13 108 82 155 99 36 13 -168 112 -341 165 -60 19 -109
                42 -145 68 -73 54 -79 63 -86 125 l-5 53 51 48 c28 27 51 53 51 58 0 5 19 21
                41 36 29 19 54 27 87 28 42 0 48 3 73 40 31 44 49 112 49 179 0 64 -45 101
                -184 150 -100 35 -114 38 -180 32 -39 -4 -145 -7 -236 -7 l-165 -1 -43 47
                c-61 68 -180 225 -228 301 -42 67 -110 124 -149 124 -11 0 -36 -8 -55 -18z"
              />
            </g>
            <text x="120" y="200" fill="#000">ZONA OESTE</text>
          </svg>