<?xml version="1.0" standalone="no"?>
<!DOCTYPE svg PUBLIC "-//W3C//DTD SVG 20010904//EN"
 "http://www.w3.org/TR/2001/REC-SVG-20010904/DTD/svg10.dtd">
<svg version="1.0" xmlns="http://www.w3.org/2000/svg"
 width="409.000000pt" height="323.000000pt" viewBox="0 0 409.000000 323.000000"
 preserveAspectRatio="xMidYMid meet">

<g transform="translate(0.000000,323.000000) scale(0.100000,-0.100000)"
fill="#dadd2b" stroke="none">
<path d="M3277 2963 c-4 -3 -7 -15 -7 -25 0 -21 -4 -22 -30 -6 -16 11 -22 9
-33 -6 -15 -20 -35 -19 -93 5 -28 11 -36 10 -59 -5 -15 -10 -30 -27 -32 -37
-6 -23 -16 -24 -33 -4 -14 17 -60 20 -60 4 0 -6 5 -19 10 -30 8 -14 7 -19 -2
-20 -94 -3 -168 -19 -197 -40 -30 -22 -42 -24 -137 -23 -98 2 -107 4 -179 39
-73 36 -83 38 -230 49 -117 9 -169 9 -217 0 -87 -17 -253 -98 -287 -142 -14
-18 -56 -53 -93 -77 -68 -45 -148 -122 -212 -207 -40 -52 -84 -72 -149 -66
-37 3 -39 5 -64 66 -21 53 -23 68 -14 94 6 17 11 48 11 69 l0 39 -50 0 c-46 0
-50 -2 -56 -27 -4 -16 -18 -45 -31 -67 l-25 -38 -31 30 c-62 60 -148 79 -183
41 -10 -12 -38 -32 -61 -46 l-43 -25 -30 22 c-26 18 -30 27 -25 50 4 19 1 33
-11 45 -17 17 -26 17 -112 -1 -20 -4 -38 -2 -47 6 -24 20 -40 5 -63 -57 -24
-65 -53 -103 -80 -103 -10 0 -36 -16 -57 -36 -34 -31 -40 -43 -46 -92 -4 -31
-8 -78 -8 -104 l-1 -48 66 0 c59 0 70 -3 101 -30 29 -26 42 -30 92 -30 32 0
61 -3 65 -7 3 -4 -6 -17 -21 -29 -25 -20 -26 -25 -15 -43 6 -11 12 -34 12 -51
0 -19 7 -34 20 -42 24 -15 26 -41 5 -58 -14 -12 -12 -17 17 -47 39 -41 33 -48
-55 -58 -64 -7 -127 -28 -127 -42 0 -4 7 -17 15 -27 8 -11 15 -23 15 -27 0 -4
-37 -4 -83 -2 -72 5 -86 3 -101 -13 -18 -18 -18 -19 25 -56 26 -22 51 -36 60
-33 19 6 98 -49 105 -73 18 -58 48 -105 79 -123 22 -13 35 -29 35 -41 0 -11
11 -33 25 -50 13 -16 29 -47 35 -68 9 -33 15 -40 35 -40 19 0 25 -5 25 -23 0
-36 27 -67 60 -67 16 0 34 -6 39 -13 6 -6 32 -37 58 -67 27 -30 58 -69 70 -86
17 -24 28 -30 47 -27 35 7 150 -52 187 -96 16 -20 39 -46 49 -58 10 -13 28
-23 40 -23 24 0 74 50 93 93 15 33 40 35 71 5 41 -42 118 -101 152 -119 27
-13 51 -16 119 -11 82 5 88 3 151 -28 45 -23 70 -43 81 -64 29 -59 53 -76 101
-76 26 0 52 6 61 14 14 13 22 12 60 -5 55 -24 61 -24 105 6 20 14 46 25 56 25
26 0 118 -94 126 -128 18 -86 63 -122 152 -122 37 0 54 -5 68 -21 12 -14 26
-19 44 -16 15 3 40 -4 67 -20 51 -30 119 -34 154 -10 17 12 45 17 96 17 l73 0
0 34 c0 37 19 60 46 54 12 -2 23 -23 34 -63 10 -37 23 -61 32 -63 30 -6 107
57 131 106 18 39 28 49 62 58 45 12 53 30 34 75 -16 41 3 79 41 79 41 0 74 32
109 105 36 77 39 100 11 115 -11 6 -20 18 -20 26 0 29 30 74 53 78 162 31 173
40 165 128 -5 48 -3 53 24 77 26 21 29 30 25 63 -3 23 -17 52 -36 73 -17 20
-31 39 -31 43 0 5 16 16 35 25 47 22 46 50 -2 76 -31 16 -29 49 4 83 26 27 26
28 7 43 -10 8 -35 20 -54 26 -61 21 -106 65 -129 128 -29 80 -28 88 16 96 78
14 93 43 47 86 -28 26 -64 91 -84 153 -14 42 -5 56 35 56 25 0 115 89 115 113
0 10 5 23 10 30 6 7 20 25 31 40 19 25 26 28 59 22 38 -7 52 2 57 35 3 23 34
40 75 40 35 0 38 2 48 42 7 23 9 55 6 72 -9 42 -111 223 -153 269 -40 45 -48
63 -63 140 -12 61 -32 81 -73 75 -19 -3 -22 -9 -23 -48 0 -66 -11 -83 -45 -76
-33 6 -113 -31 -142 -67 -13 -15 -20 -18 -24 -9 -2 6 -15 12 -28 12 -33 0 -49
31 -33 66 11 24 10 28 -12 45 -50 38 -52 41 -41 52 15 15 14 50 -1 65 -13 13
-50 16 -61 5z"/>
</g>
</svg>
